<svg width="148" height="36" viewBox="0 0 148 36" fill="none" xmlns="http://www.w3.org/2000/svg">
<g clip-path="url(#clip0_620_16)">
<rect width="148" height="36" fill="white"/>
<path d="M53.6644 8.17627H45.7223C45.1788 8.17627 44.7166 8.57111 44.6319 9.10762L41.4197 29.4732C41.3559 29.875 41.6671 30.2373 42.0747 30.2373H45.8663C46.4098 30.2373 46.872 29.8425 46.9568 29.3048L47.8231 23.8119C47.9067 23.2742 48.3701 22.8794 48.9124 22.8794H51.4266C56.6582 22.8794 59.6776 20.3478 60.4661 15.331C60.8214 13.1361 60.4812 11.4116 59.4534 10.2039C58.3246 8.87769 56.3226 8.17627 53.6644 8.17627ZM54.5806 15.6143C54.1463 18.4641 51.9689 18.4641 49.8635 18.4641H48.665L49.5058 13.1419C49.5557 12.8203 49.8345 12.5834 50.1596 12.5834H50.7089C52.1431 12.5834 53.496 12.5834 54.1951 13.4009C54.612 13.8887 54.7397 14.6133 54.5806 15.6143Z" fill="#253B80"/>
<path d="M77.4046 15.5226H73.6014C73.2774 15.5226 72.9975 15.7595 72.9476 16.0812L72.7792 17.1449L72.5133 16.7594C71.6899 15.5644 69.8539 15.1649 68.0214 15.1649C63.8187 15.1649 60.2292 18.348 59.5301 22.8132C59.1666 25.0405 59.6834 27.1703 60.9468 28.6556C62.1058 30.0213 63.7641 30.5903 65.7372 30.5903C69.1235 30.5903 71.0013 28.4129 71.0013 28.4129L70.8317 29.4697C70.7679 29.8738 71.0791 30.2361 71.4844 30.2361H74.9102C75.4548 30.2361 75.9147 29.8413 76.0006 29.3036L78.0561 16.2867C78.1212 15.8861 77.8111 15.5226 77.4046 15.5226ZM72.1034 22.9247C71.7364 25.0974 70.0119 26.556 67.8124 26.556C66.708 26.556 65.8254 26.2018 65.2587 25.5306C64.6966 24.864 64.483 23.9152 64.6618 22.8585C65.0044 20.7043 66.7579 19.1981 68.9237 19.1981C70.0037 19.1981 70.8817 19.5569 71.46 20.2339C72.0395 20.9179 72.2694 21.8725 72.1034 22.9247Z" fill="#253B80"/>
<path d="M97.6599 15.5226H93.8381C93.4734 15.5226 93.1308 15.7037 92.9241 16.0068L87.653 23.7712L85.4187 16.3099C85.2782 15.8431 84.8474 15.5226 84.3596 15.5226H80.604C80.1476 15.5226 79.8306 15.9685 79.9757 16.3982L84.1854 28.752L80.2277 34.339C79.9165 34.7791 80.2301 35.3841 80.7678 35.3841H84.5849C84.9472 35.3841 85.2863 35.2076 85.4919 34.9103L98.2034 16.5619C98.5076 16.123 98.1952 15.5226 97.6599 15.5226Z" fill="#253B80"/>
<path d="M110.313 8.17627H102.37C101.828 8.17627 101.366 8.57111 101.281 9.10762L98.0686 29.4732C98.0048 29.875 98.316 30.2373 98.7213 30.2373H102.797C103.176 30.2373 103.5 29.9609 103.559 29.5847L104.471 23.8119C104.554 23.2742 105.018 22.8794 105.56 22.8794H108.073C113.306 22.8794 116.324 20.3478 117.114 15.331C117.47 13.1361 117.128 11.4116 116.1 10.2039C114.972 8.87769 112.971 8.17627 110.313 8.17627ZM111.23 15.6143C110.796 18.4641 108.619 18.4641 106.512 18.4641H105.315L106.157 13.1419C106.207 12.8203 106.483 12.5834 106.81 12.5834H107.359C108.792 12.5834 110.146 12.5834 110.845 13.4009C111.262 13.8887 111.389 14.6133 111.23 15.6143Z" fill="#179BD7"/>
<path d="M134.052 15.5226H130.251C129.925 15.5226 129.648 15.7595 129.599 16.0812L129.43 17.1449L129.163 16.7594C128.34 15.5644 126.505 15.1649 124.673 15.1649C120.47 15.1649 116.882 18.348 116.182 22.8132C115.82 25.0405 116.335 27.1703 117.598 28.6556C118.759 30.0213 120.415 30.5903 122.388 30.5903C125.775 30.5903 127.653 28.4129 127.653 28.4129L127.483 29.4697C127.419 29.8738 127.73 30.2361 128.138 30.2361H131.563C132.105 30.2361 132.567 29.8413 132.652 29.3036L134.709 16.2867C134.771 15.8861 134.46 15.5226 134.052 15.5226ZM128.751 22.9247C128.386 25.0974 126.66 26.556 124.46 26.556C123.358 26.556 122.473 26.2018 121.906 25.5306C121.344 24.864 121.133 23.9152 121.31 22.8585C121.654 20.7043 123.406 19.1981 125.571 19.1981C126.651 19.1981 127.529 19.5569 128.108 20.2339C128.69 20.9179 128.919 21.8725 128.751 22.9247Z" fill="#179BD7"/>
<path d="M138.536 8.73485L135.276 29.4732C135.213 29.875 135.524 30.2373 135.929 30.2373H139.206C139.751 30.2373 140.213 29.8425 140.297 29.3048L143.511 8.9404C143.575 8.53859 143.264 8.17511 142.858 8.17511H139.189C138.865 8.17627 138.586 8.41317 138.536 8.73485Z" fill="#179BD7"/>
<path d="M8.43794 34.1949L9.04529 30.3371L7.69239 30.3058H1.23213L5.72168 1.83906C5.73562 1.75312 5.78091 1.67299 5.8471 1.61609C5.91329 1.55919 5.99807 1.52783 6.08633 1.52783H16.9792C20.5955 1.52783 23.0911 2.28035 24.3941 3.76564C25.0049 4.46241 25.3939 5.19054 25.5821 5.99183C25.7795 6.83261 25.783 7.83712 25.5902 9.06228L25.5763 9.1517V9.93674L26.1871 10.2828C26.7015 10.5557 27.1103 10.8681 27.4239 11.2258C27.9465 11.8215 28.2844 12.5787 28.4272 13.4763C28.5747 14.3996 28.5259 15.4982 28.2844 16.7419C28.0057 18.1726 27.5551 19.4187 26.9466 20.4383C26.3868 21.3778 25.6738 22.157 24.8272 22.7609C24.019 23.3345 23.0586 23.77 21.9728 24.0487C20.9206 24.3228 19.721 24.461 18.4053 24.461H17.5576C16.9514 24.461 16.3626 24.6793 15.9004 25.0707C15.437 25.4702 15.1305 26.016 15.0364 26.6129L14.9725 26.9601L13.8995 33.7594L13.8507 34.0091C13.8379 34.0881 13.8159 34.1276 13.7834 34.1543C13.7543 34.1787 13.7125 34.1949 13.6719 34.1949H8.43794Z" fill="#253B80"/>
<path d="M26.7654 9.24231C26.7329 9.45018 26.6957 9.6627 26.6539 9.88102C25.2174 17.2564 20.3028 19.8042 14.0261 19.8042H10.8302C10.0626 19.8042 9.41574 20.3617 9.29612 21.1188L7.65987 31.4961L7.19651 34.4377C7.11871 34.9347 7.50193 35.383 8.00361 35.383H13.6719C14.3431 35.383 14.9133 34.8952 15.019 34.2333L15.0747 33.9453L16.1419 27.1726L16.2104 26.801C16.315 26.1368 16.8863 25.649 17.5575 25.649H18.4053C23.897 25.649 28.1961 23.4193 29.4526 16.9672C29.9775 14.2719 29.7058 12.0213 28.3169 10.4384C27.8965 9.96115 27.3751 9.56515 26.7654 9.24231Z" fill="#179BD7"/>
<path d="M25.2627 8.64305C25.0432 8.57918 24.8168 8.52112 24.5845 8.46886C24.3511 8.41776 24.1119 8.37247 23.8657 8.33299C23.004 8.19364 22.0599 8.12744 21.0484 8.12744H12.5106C12.3004 8.12744 12.1006 8.17505 11.9218 8.26099C11.5281 8.45028 11.2355 8.82305 11.1646 9.27944L9.34839 20.7832L9.29613 21.1188C9.41574 20.3616 10.0626 19.8042 10.8302 19.8042H14.0261C20.3028 19.8042 25.2174 17.2552 26.6539 9.88099C26.6969 9.66267 26.7329 9.45015 26.7654 9.24228C26.4019 9.04951 26.0083 8.8846 25.5844 8.74409C25.4799 8.70925 25.3719 8.67557 25.2627 8.64305Z" fill="#222D65"/>
<path d="M11.1646 9.27946C11.2355 8.82307 11.5281 8.4503 11.9218 8.26217C12.1018 8.17623 12.3004 8.12862 12.5106 8.12862H21.0484C22.0599 8.12862 23.004 8.19481 23.8657 8.33417C24.1119 8.37365 24.3511 8.41894 24.5845 8.47004C24.8168 8.5223 25.0432 8.58036 25.2627 8.64423C25.3719 8.67675 25.4799 8.71043 25.5855 8.7441C26.0094 8.88462 26.4031 9.05068 26.7666 9.2423C27.1939 6.51675 26.7631 4.66101 25.2894 2.98062C23.6648 1.13068 20.7325 0.338684 16.9804 0.338684H6.08747C5.32102 0.338684 4.66721 0.896103 4.54876 1.65443L0.0115999 30.4138C-0.0778194 30.9828 0.361148 31.4961 0.934826 31.4961H7.65986L9.34837 20.7832L11.1646 9.27946Z" fill="#253B80"/>
</g>
<defs>
<clipPath id="clip0_620_16">
<rect width="148" height="36" fill="white"/>
</clipPath>
</defs>
</svg>
