<svg width="148" height="36" viewBox="0 0 148 36" fill="none" xmlns="http://www.w3.org/2000/svg">
<rect width="148" height="36" fill="white"/>
<g clip-path="url(#clip0_620_2)">
<path fill-rule="evenodd" clip-rule="evenodd" d="M35.2765 14.1746C35.0431 15.0454 34.5908 15.6846 33.9194 16.0927C33.2472 16.5007 32.3045 16.7051 31.0885 16.7051H27.2252L28.5814 11.6445H32.4447C33.6598 11.6445 34.494 11.8485 34.9472 12.2565C35.3995 12.665 35.5099 13.3042 35.2765 14.1746ZM39.2773 14.0655C39.7686 12.2344 39.5649 10.8284 38.6666 9.84903C37.7682 8.86962 36.194 8.38019 33.9456 8.38019H25.3217L20.1312 27.7498H24.321L26.4137 19.9419H29.1614C29.7775 19.9419 30.2625 20.0418 30.6172 20.2413C30.9727 20.4413 31.1808 20.795 31.245 21.3022L31.9923 27.7498H36.4816L35.7533 21.7378C35.6049 20.3956 34.9907 19.6066 33.9113 19.371C35.2874 18.9724 36.44 18.3097 37.3683 17.3846C38.2957 16.46 38.9326 15.3539 39.2773 14.0655Z" fill="#072654"/>
<path fill-rule="evenodd" clip-rule="evenodd" d="M49.4602 20.8127C49.1101 22.1183 48.5708 23.1162 47.8425 23.8051C47.1133 24.4945 46.2411 24.8389 45.226 24.8389C44.191 24.8389 43.4889 24.4991 43.1188 23.8187C42.7469 23.1388 42.7343 22.1553 43.0799 20.867C43.4246 19.5796 43.9747 18.5731 44.732 17.847C45.4883 17.1223 46.3741 16.759 47.39 16.759C48.4052 16.759 49.0928 17.1087 49.4492 17.8068C49.8058 18.5048 49.8103 19.5067 49.4602 20.8127ZM51.2968 13.957L50.772 15.9159C50.5449 15.2083 50.1061 14.6465 49.4565 14.2294C48.806 13.8123 47.9999 13.6033 47.039 13.6033C45.8602 13.6033 44.7265 13.9073 43.6391 14.5148C42.5516 15.1228 41.6006 15.9796 40.7873 17.0856C39.974 18.1921 39.3778 19.4525 38.9986 20.867C38.6196 22.282 38.5435 23.5288 38.7715 24.6076C38.9996 25.6871 39.4935 26.5167 40.2544 27.097C41.0144 27.6779 41.9934 27.9674 43.1903 27.9674C44.1511 27.9674 45.0668 27.768 45.9353 27.3689C46.8038 26.9704 47.5412 26.4167 48.1482 25.7096L47.601 27.7498H51.6541L55.35 13.957H51.2968Z" fill="#072654"/>
<path fill-rule="evenodd" clip-rule="evenodd" d="M69.9245 13.957H58.1448L57.3214 17.0314H64.1767L55.113 24.8659L54.3394 27.7498H66.5001L67.3242 24.6759H59.9797L69.1809 16.7319L69.9245 13.957Z" fill="#072654"/>
<path fill-rule="evenodd" clip-rule="evenodd" d="M80.2956 20.7856C79.931 22.1454 79.3908 23.1618 78.6761 23.8328C77.9614 24.5036 77.0964 24.8388 76.0813 24.8388C73.9587 24.8388 73.2603 23.4884 73.9841 20.7856C74.3442 19.4433 74.887 18.4323 75.6127 17.7524C76.3391 17.0721 77.2186 16.7319 78.2527 16.7319C79.2678 16.7319 79.9527 17.0721 80.3056 17.7524C80.6583 18.4323 80.6557 19.4433 80.2956 20.7856ZM82.6669 14.4736C81.7341 13.8937 80.5426 13.6033 79.0914 13.6033C77.6221 13.6033 76.2613 13.8937 75.0083 14.4736C73.7552 15.0545 72.6885 15.8887 71.8082 16.9766C70.9269 18.065 70.2918 19.3344 69.9028 20.7856C69.5137 22.2368 69.4685 23.5057 69.7671 24.5941C70.0648 25.6824 70.6836 26.5167 71.6263 27.097C72.5682 27.6779 73.7733 27.9674 75.2427 27.9674C76.6938 27.9674 78.0409 27.6779 79.285 27.097C80.5272 26.5167 81.5903 25.6824 82.4715 24.5941C83.3517 23.5057 83.9869 22.2368 84.376 20.7856C84.765 19.3344 84.8103 18.065 84.5126 16.9766C84.214 15.8887 83.5987 15.0545 82.6669 14.4736Z" fill="#072654"/>
<path fill-rule="evenodd" clip-rule="evenodd" d="M125.061 20.8127C124.711 22.1183 124.172 23.1162 123.444 23.8051C122.715 24.4945 121.841 24.8389 120.826 24.8389C119.793 24.8389 119.09 24.4991 118.72 23.8187C118.348 23.1388 118.335 22.1553 118.681 20.867C119.026 19.5796 119.576 18.5731 120.333 17.847C121.089 17.1223 121.975 16.759 122.991 16.759C124.006 16.759 124.694 17.1087 125.05 17.8068C125.407 18.5048 125.411 19.5067 125.061 20.8127ZM126.898 13.957L126.373 15.9159C126.146 15.2083 125.707 14.6465 125.058 14.2294C124.407 13.8123 123.601 13.6033 122.64 13.6033C121.461 13.6033 120.328 13.9073 119.24 14.5148C118.153 15.1228 117.202 15.9796 116.388 17.0856C115.575 18.1921 114.979 19.4525 114.6 20.867C114.221 22.282 114.146 23.5288 114.373 24.6076C114.601 25.6871 115.094 26.5167 115.855 27.097C116.616 27.6779 117.594 27.9674 118.791 27.9674C119.752 27.9674 120.668 27.768 121.536 27.3689C122.405 26.9704 123.142 26.4167 123.749 25.7096L123.202 27.7498H127.255L130.951 13.957H126.898Z" fill="#072654"/>
<path fill-rule="evenodd" clip-rule="evenodd" d="M97.1184 17.657L98.1516 13.9027C97.8005 13.7213 97.3354 13.6304 96.7555 13.6304C95.83 13.6304 94.9388 13.8616 94.0802 14.3243C93.3429 14.7213 92.715 15.2786 92.1848 15.9768L92.7222 13.9551L91.5487 13.957H88.6703L84.946 27.7498H89.0553L90.9869 20.5408C91.2683 19.4891 91.7731 18.6684 92.5033 18.079C93.2316 17.4896 94.1408 17.1946 95.2293 17.1946C95.9005 17.1946 96.5293 17.3489 97.1184 17.657Z" fill="#072654"/>
<path fill-rule="evenodd" clip-rule="evenodd" d="M108.557 20.8668C108.211 22.1551 107.675 23.1386 106.95 23.8185C106.222 24.4988 105.352 24.8386 104.337 24.8386C103.321 24.8386 102.629 24.4943 102.26 23.8049C101.891 23.116 101.882 22.1184 102.232 20.8124C102.583 19.5065 103.127 18.5045 103.867 17.8065C104.607 17.1084 105.486 16.7587 106.502 16.7587C107.499 16.7587 108.177 17.122 108.536 17.8472C108.894 18.5728 108.901 19.5797 108.557 20.8668ZM111.428 14.5145C110.666 13.907 109.695 13.6035 108.517 13.6035C107.483 13.6035 106.498 13.8392 105.566 14.3106C104.632 14.7828 103.875 15.4256 103.294 16.2421L103.307 16.1517L103.997 13.9549H103.203V13.9568H99.9859L98.9645 17.7709C98.9527 17.8153 98.9428 17.8566 98.9309 17.9014L94.7176 33.6259H98.8261L100.948 25.7099C101.156 26.4164 101.588 26.9701 102.243 27.3687C102.898 27.7676 103.706 27.9672 104.668 27.9672C105.865 27.9672 107.003 27.6776 108.084 27.0968C109.165 26.5168 110.104 25.6867 110.9 24.6074C111.697 23.529 112.285 22.2817 112.664 20.8668C113.043 19.4522 113.122 18.1919 112.902 17.0854C112.682 15.9793 112.19 15.1225 111.428 14.5145Z" fill="#072654"/>
<path fill-rule="evenodd" clip-rule="evenodd" d="M147.964 13.9609L147.967 13.9571H145.478C145.399 13.9571 145.328 13.9594 145.256 13.9609H143.964L143.304 14.8811C143.251 14.9504 143.198 15.0202 143.141 15.1011L143.069 15.2077L137.82 22.5178L136.732 13.9571H132.432L134.609 26.9655L129.801 33.6262H129.938H132.393H134.085L135.25 31.9755C135.284 31.9264 135.314 31.8861 135.35 31.8341L136.71 29.9063L136.749 29.8511L142.834 21.226L147.96 13.9666L147.967 13.9609H147.964Z" fill="#072654"/>
<path fill-rule="evenodd" clip-rule="evenodd" d="M9.57269 10.5992L8.34279 15.1253L15.3803 10.5737L10.778 27.7455L15.4516 27.7497L22.2504 2.38672L9.57269 10.5992Z" fill="#3395FF"/>
<path fill-rule="evenodd" clip-rule="evenodd" d="M1.9979 20.531L0.0630493 27.7498H9.64293C9.64293 27.7498 13.5613 13.0682 13.5624 13.064C13.5588 13.0663 1.9979 20.531 1.9979 20.531Z" fill="#072654"/>
</g>
<defs>
<clipPath id="clip0_620_2">
<rect width="148" height="31.3017" fill="white" transform="translate(0 2.34918)"/>
</clipPath>
</defs>
</svg>
