<svg width="148" height="36" viewBox="0 0 148 36" fill="none" xmlns="http://www.w3.org/2000/svg">
<rect width="148" height="36" fill="white"/>
<path d="M33.9898 21.2193C30.5434 25.5577 27.1007 29.9003 23.6618 34.247C23.5651 34.3725 23.4936 34.5483 23.2639 34.5257C23.0368 34.291 23.0556 33.9584 22.9765 33.6659C22.098 30.458 19.9367 28.4661 16.9308 27.265C14.6503 26.3551 12.2531 25.8606 9.89357 25.2268C7.71098 24.6407 5.5397 24.0131 3.65582 22.689C1.6113 21.2532 0.469177 19.2564 0.0160938 16.829C-0.00775957 16.7187 -0.00506362 16.6043 0.0239572 16.4952C0.0529779 16.3861 0.107496 16.2854 0.183021 16.2015C3.72904 11.7276 7.27464 7.25322 10.8198 2.77844C10.8625 2.73393 10.9101 2.69435 10.9616 2.66047C11.2214 2.73075 11.1587 2.96043 11.1963 3.1261C11.8527 5.99772 13.5057 8.09496 16.1275 9.4153C16.6195 9.66632 16.8254 9.95624 16.8392 10.5185C16.8618 11.4423 17.2082 12.2694 17.9851 12.9998C16.9597 13.1253 16.0359 13.2094 15.1423 13.4541C13.0677 14.0202 11.2516 14.9941 10.0178 16.8228C9.33129 17.8369 8.92465 18.9564 9.09785 20.1952C9.36141 22.0916 10.6667 23.4245 12.7915 23.8788C15.7975 24.5214 18.7381 24.3357 21.5118 22.8748C22.9351 22.1217 24.076 21.0737 24.7512 19.5839C25.8883 17.0738 24.898 14.6515 22.3364 13.6424C22.1293 13.5608 21.9235 13.4742 21.7164 13.3914L21.7014 13.2571C22.8535 12.9295 23.9944 12.543 25.1654 12.3057C25.567 12.2242 26.0515 12.4928 26.4857 12.6358C28.775 13.3889 30.935 14.3603 32.4862 16.3182C33.4025 17.4729 33.9333 18.802 34.2434 20.2303C34.2832 20.4034 34.2809 20.5836 34.2368 20.7556C34.1927 20.9277 34.108 21.0867 33.9898 21.2193V21.2193ZM37.3785 13.1994C36.2816 10.0198 35.1495 6.85285 33.9823 3.69841C33.3548 2.0028 31.7232 1.21587 30.0238 1.8158C26.671 2.9872 23.333 4.20045 20.0095 5.45553C17.7755 6.30019 17.0701 8.75136 18.0215 10.8398C18.4632 11.8112 19.2866 12.2995 20.376 12.3308C20.9546 12.3472 21.4918 12.1853 22.0327 12.0284C23.6179 11.5728 25.2018 11.1084 26.7857 10.6478C27.2877 10.5009 27.8663 10.575 27.8663 11.1272C27.8663 12.0397 28.5014 12.1978 29.0787 12.4965C29.4464 12.686 29.6247 12.607 29.6222 12.1715C29.6222 10.9578 29.6134 9.74539 29.6222 8.53172C29.6222 8.13763 29.4464 8.05981 29.1101 8.16524C28.5315 8.34597 27.9529 8.5267 27.3731 8.69865C25.2884 9.31113 23.2062 9.92863 21.119 10.5286C20.007 10.8473 19.4133 10.4294 19.3267 9.30485C19.2351 8.11755 19.7372 7.33563 20.9031 6.90765C23.963 5.78477 27.025 4.66817 30.089 3.55785C31.4696 3.05581 32.0758 3.34574 32.5791 4.74641C33.6108 7.61677 34.6462 10.4859 35.6616 13.3625C36.2008 14.8596 36.4764 16.4389 36.4761 18.0302C36.4661 20.6018 36.4761 23.176 36.4761 25.7451C36.4761 27.1496 35.9741 27.6604 34.5458 27.6742C33.3548 27.6855 32.1612 27.6742 30.9714 27.6742C30.6978 27.6742 30.4242 27.6742 30.2284 27.9164C29.8933 28.3406 29.5531 28.7598 29.1691 29.2393C29.2591 29.2855 29.3543 29.3208 29.4527 29.3447C31.2927 29.3447 33.1364 29.42 34.9751 29.3208C37.0962 29.2054 38.1579 27.9716 38.1617 25.843C38.1617 23.3128 38.1454 20.7825 38.1617 18.2523C38.1923 16.5355 37.9274 14.8263 37.3785 13.1994V13.1994ZM44.0568 15.6104C44.0568 15.1083 43.8836 14.8887 43.3653 14.8975C42.257 14.9176 41.1488 14.9201 40.0418 14.89C39.4858 14.8749 39.3114 15.1083 39.3126 15.6342C39.3227 19.8563 39.3227 24.0784 39.3126 28.3005C39.3126 28.8314 39.5122 29.0535 40.0494 29.0535C41.1149 29.0535 42.183 29.0937 43.2473 29.105C44.0003 29.1138 44.0493 29.0585 44.0493 28.2741C44.0493 26.1823 44.0493 24.0905 44.0493 21.9987C44.0505 19.8776 44.0405 17.744 44.0568 15.6104ZM20.4525 14.6176C20.1388 15.146 20.5203 15.3041 20.927 15.5112C21.6461 15.8764 21.8771 16.4425 21.6286 17.0474C21.5118 17.3323 21.3437 17.5106 21.001 17.4089C20.7199 17.3236 20.5115 17.2244 20.5981 16.8416C20.7011 16.3835 20.4287 16.0961 20.0346 15.9078C19.5865 15.6919 19.446 16.081 19.2452 16.3207C18.8837 16.7537 18.5561 17.2169 18.1884 17.6436C17.9035 17.9724 17.9713 18.1783 18.3315 18.3715C18.5709 18.5001 18.7981 18.6501 19.0105 18.8196C19.6844 19.3605 19.7397 19.8475 19.2075 20.5403C18.3917 21.6034 17.2973 22.0627 15.9732 21.9837C15.3017 21.9435 14.6214 21.8443 14.2324 22.5999C14.2035 22.6564 14.0918 22.6777 14.014 22.6991C13.9826 22.7078 13.9387 22.6765 13.8998 22.6639C13.8835 22.6263 13.8433 22.5673 13.8546 22.5535C14.4043 21.9197 14.0441 21.6749 13.448 21.3837C12.5455 20.9357 12.4326 20.16 13.0062 19.348C13.2484 19.0041 13.5082 19.048 13.8232 19.1648C14.2324 19.3191 13.9788 19.5689 13.8948 19.7747C13.6751 20.3157 13.8433 20.7022 14.3252 20.9947C14.6491 21.1892 14.8925 21.1553 15.1298 20.8415C15.595 20.2224 16.0753 19.6157 16.5706 19.0217C16.8216 18.7242 16.7513 18.546 16.4225 18.4079C16.404 18.3984 16.386 18.3879 16.3685 18.3766C14.9377 17.5106 14.939 16.4814 16.376 15.5777C17.0909 15.1271 17.9319 14.9185 18.7745 14.9828C19.2765 15.0142 19.7786 15.1159 20.1287 14.6063C20.189 14.5147 20.3132 14.5172 20.4525 14.6201V14.6176ZM17.8332 19.1698C17.345 18.7669 17.0801 19.0129 16.7852 19.4208C16.4714 19.8613 16.1125 20.268 15.7811 20.6985C15.6494 20.8729 15.3783 21.0386 15.4875 21.2733C15.613 21.5444 15.9355 21.385 16.1652 21.4352C16.9697 21.4226 17.6324 21.1214 18.1018 20.4688C18.4444 19.9944 18.3164 19.5701 17.8332 19.1723V19.1698ZM19.0331 15.8488C19.0422 15.8003 19.034 15.7501 19.0099 15.707C18.9858 15.6638 18.9474 15.6305 18.9013 15.6129C18.211 15.2364 16.5869 16.0559 16.5166 16.8341C16.4739 17.301 16.8178 17.5357 17.1693 17.7377C17.5207 17.9398 17.6537 17.6461 17.8181 17.4428C18.1595 17.0244 18.4942 16.5998 18.8222 16.1689C18.8983 16.067 18.9687 15.961 19.0331 15.8513V15.8488Z" fill="#7A57D1"/>
<path d="M71.8372 14.8967H67.6516C67.5752 14.3552 67.4191 13.8742 67.1834 13.4537C66.9477 13.0269 66.645 12.6637 66.2755 12.3643C65.906 12.0649 65.4792 11.8355 64.995 11.6763C64.5172 11.517 63.998 11.4374 63.4373 11.4374C62.4244 11.4374 61.542 11.689 60.7903 12.1923C60.0385 12.6892 59.4556 13.4155 59.0415 14.3711C58.6274 15.3204 58.4203 16.4735 58.4203 17.8305C58.4203 19.2257 58.6274 20.3979 59.0415 21.3472C59.462 22.2964 60.0481 23.0131 60.7998 23.4973C61.5516 23.9815 62.4212 24.2236 63.4087 24.2236C63.9629 24.2236 64.4758 24.1503 64.9472 24.0038C65.425 23.8573 65.8487 23.6438 66.2182 23.3635C66.5877 23.0768 66.8935 22.7296 67.1356 22.3219C67.3841 21.9142 67.5561 21.4491 67.6516 20.9267L71.8372 20.9458C71.7289 21.8441 71.4582 22.7105 71.025 23.5451C70.5981 24.3733 70.0216 25.1155 69.2953 25.7717C68.5754 26.4215 67.7153 26.9375 66.7151 27.3198C65.7213 27.6957 64.5968 27.8836 63.3418 27.8836C61.5962 27.8836 60.0353 27.4886 58.6592 26.6986C57.2895 25.9087 56.2065 24.7651 55.4101 23.268C54.6202 21.7708 54.2252 19.9583 54.2252 17.8305C54.2252 15.6963 54.6265 13.8806 55.4292 12.3834C56.232 10.8863 57.3214 9.74592 58.6975 8.96231C60.0736 8.17233 61.6217 7.77734 63.3418 7.77734C64.4758 7.77734 65.527 7.93661 66.4953 8.25515C67.4701 8.57369 68.3333 9.03876 69.0851 9.65036C69.8368 10.2556 70.4484 10.9978 70.9199 11.877C71.3977 12.7561 71.7035 13.7627 71.8372 14.8967ZM78.9136 27.8932C77.9771 27.8932 77.1425 27.7307 76.4099 27.4058C75.6773 27.0745 75.0975 26.5871 74.6707 25.9437C74.2502 25.2939 74.04 24.4848 74.04 23.5164C74.04 22.701 74.1897 22.0161 74.4891 21.4618C74.7885 20.9076 75.1963 20.4616 75.7123 20.124C76.2283 19.7863 76.8144 19.5315 77.4706 19.3595C78.1332 19.1875 78.8276 19.0664 79.5539 18.9963C80.4076 18.9071 81.0956 18.8243 81.618 18.7479C82.1404 18.665 82.5195 18.544 82.7552 18.3847C82.9909 18.2255 83.1088 17.9897 83.1088 17.6776V17.6202C83.1088 17.015 82.9177 16.5468 82.5354 16.2155C82.1595 15.8842 81.6244 15.7185 80.93 15.7185C80.1973 15.7185 79.6144 15.881 79.1812 16.2059C78.748 16.5245 78.4613 16.9258 78.3211 17.41L74.556 17.1042C74.7471 16.2123 75.123 15.4414 75.6836 14.7916C76.2443 14.1354 76.9673 13.6321 77.8529 13.2817C78.7448 12.925 79.7769 12.7466 80.9491 12.7466C81.7646 12.7466 82.545 12.8421 83.2904 13.0333C84.0421 13.2244 84.7079 13.5206 85.2876 13.922C85.8737 14.3233 86.3356 14.8394 86.6733 15.4701C87.0109 16.0944 87.1797 16.843 87.1797 17.7158V27.616H83.319V25.5806H83.2044C82.9686 26.0393 82.6533 26.4438 82.2583 26.7942C81.8633 27.1382 81.3887 27.409 80.8344 27.6065C80.2802 27.7976 79.6399 27.8932 78.9136 27.8932ZM80.0795 25.0836C80.6783 25.0836 81.2071 24.9658 81.6658 24.7301C82.1245 24.488 82.4845 24.1631 82.7457 23.7553C83.0069 23.3476 83.1375 22.8857 83.1375 22.3697V20.812C83.01 20.8948 82.8349 20.9713 82.6119 21.0414C82.3953 21.1051 82.15 21.1656 81.876 21.2229C81.6021 21.2739 81.3282 21.3217 81.0542 21.3663C80.7803 21.4045 80.5318 21.4395 80.3088 21.4714C79.831 21.5415 79.4137 21.653 79.057 21.8059C78.7002 21.9588 78.4231 22.1658 78.2256 22.427C78.0281 22.6818 77.9293 23.0004 77.9293 23.3826C77.9293 23.9369 78.13 24.3605 78.5314 24.6536C78.9391 24.9403 79.4551 25.0836 80.0795 25.0836ZM102.551 17.1233L98.824 17.3527C98.7603 17.0341 98.6233 16.7474 98.4131 16.4926C98.2028 16.2314 97.9257 16.0243 97.5817 15.8714C97.244 15.7122 96.8395 15.6325 96.368 15.6325C95.7373 15.6325 95.2054 15.7663 94.7721 16.0339C94.3389 16.2951 94.1223 16.6455 94.1223 17.0851C94.1223 17.4355 94.2625 17.7317 94.5428 17.9738C94.8231 18.2159 95.3041 18.4102 95.9858 18.5567L98.6424 19.0919C100.069 19.3849 101.133 19.8564 101.834 20.5062C102.535 21.156 102.885 22.0097 102.885 23.0673C102.885 24.0293 102.602 24.8734 102.035 25.5997C101.474 26.3259 100.703 26.8929 99.7223 27.3007C98.7475 27.702 97.6231 27.9027 96.3489 27.9027C94.4058 27.9027 92.8577 27.4982 91.7046 26.6891C90.5579 25.8736 89.8857 24.7651 89.6882 23.3635L93.6923 23.1533C93.8133 23.7458 94.1064 24.1981 94.5715 24.5103C95.0365 24.8161 95.6322 24.969 96.3585 24.969C97.072 24.969 97.6454 24.832 98.0786 24.558C98.5182 24.2777 98.7412 23.9178 98.7475 23.4782C98.7412 23.1087 98.5851 22.8061 98.2793 22.5704C97.9735 22.3283 97.502 22.1435 96.865 22.0161L94.323 21.5096C92.8896 21.2229 91.8225 20.726 91.1217 20.0188C90.4273 19.3117 90.08 18.4102 90.08 17.3144C90.08 16.3716 90.3349 15.5593 90.8445 14.8776C91.3606 14.1959 92.0837 13.6703 93.0138 13.3008C93.9503 12.9313 95.0461 12.7466 96.3011 12.7466C98.155 12.7466 99.614 13.1384 100.678 13.922C101.748 14.7056 102.373 15.7727 102.551 17.1233ZM109.52 19.1301V27.616H105.449V8.04492H109.405V15.5274H109.577C109.908 14.661 110.444 13.9825 111.183 13.492C111.922 12.995 112.849 12.7466 113.963 12.7466C114.983 12.7466 115.871 12.9695 116.63 13.4155C117.394 13.8551 117.987 14.489 118.407 15.3172C118.834 16.139 119.044 17.1233 119.038 18.2701V27.616H114.967V18.9963C114.973 18.0917 114.744 17.3877 114.279 16.8844C113.82 16.3811 113.177 16.1295 112.348 16.1295C111.794 16.1295 111.304 16.2473 110.877 16.483C110.456 16.7188 110.125 17.0628 109.883 17.5151C109.647 17.9611 109.526 18.4994 109.52 19.1301Z" fill="#7A57D1"/>
</svg>
