<svg width="148" height="36" viewBox="0 0 148 36" fill="none" xmlns="http://www.w3.org/2000/svg">
<rect width="148" height="36" fill="white"/>
<path d="M42.3505 11.0706H45.0259V24.8371H42.3505V11.0706Z" fill="#2A3362"/>
<path d="M55.3807 19.9526C55.3807 21.8529 54.1584 22.7066 52.5306 22.7066C50.9036 22.7066 49.8154 21.8529 49.8154 20.0493V15.1431H47.1399V20.6705C47.1399 23.422 48.8656 25.0317 51.7357 25.0317C53.5391 25.0317 54.5468 24.3673 55.2234 23.6164H55.379L55.6117 24.8388H58.0726V15.1431H55.3807V19.9526Z" fill="#2A3362"/>
<path d="M81.6263 22.9184C79.6679 22.9184 78.5634 22.0267 78.3896 20.7284H86.8814C86.9202 20.4585 86.9392 20.1859 86.9392 19.9126C86.9211 16.4249 84.282 14.9484 81.4586 14.9484C78.182 14.9484 75.7185 16.9086 75.7185 20.0692C75.7185 23.0732 78.0852 25.0317 81.6333 25.0317C84.6013 25.0317 86.5768 23.7143 86.9859 21.6964H84.3417C84.0114 22.492 83.0616 22.9186 81.6264 22.9186L81.6263 22.9184ZM81.4602 17.0633C83.1677 17.0633 84.1556 17.8185 84.3112 18.8902H78.4474C78.6982 17.8634 79.6876 17.0633 81.4514 17.0633H81.4601H81.4602Z" fill="#2A3362"/>
<path d="M91.4848 16.5349H91.3187L91.066 15.1378H88.6345V24.8389H91.3099V20.6705C91.3099 18.7883 92.3946 17.7424 94.4125 17.7424C94.7795 17.7374 95.1452 17.7692 95.505 17.8386V15.1431H95.1313C93.3478 15.1431 92.2406 15.5116 91.4845 16.5349H91.4848Z" fill="#2A3362"/>
<path d="M108.642 21.8131H108.488L106.199 15.7444H103.446L101.197 21.7949H101.023L98.89 15.1431H96.2327L99.5095 24.8388H102.419L104.746 18.6522H104.901L107.189 24.8388H110.117L113.394 15.1431H110.737L108.642 21.8131Z" fill="#2A3362"/>
<path d="M124.043 22.0154V18.77C124.043 16.1326 121.812 14.9501 119.039 14.9501C116.093 14.9501 114.25 16.3471 113.998 18.4378H116.674C116.868 17.5262 117.644 17.0226 119.039 17.0226C120.434 17.0226 121.364 17.5459 121.364 18.6126V18.86L117.001 19.192C114.985 19.3477 113.514 20.2403 113.514 22.1399C113.514 24.0982 115.201 25.0281 117.682 25.0281C119.685 25.0281 120.906 24.4703 121.653 23.6277H121.786C122.206 24.575 123.058 24.8353 123.984 24.8353H125.109V22.8605H124.856C124.294 22.8605 124.043 22.5899 124.043 22.0155L124.043 22.0154ZM121.366 20.9876C121.366 22.5204 119.539 23.0231 117.973 23.0231C116.906 23.0231 116.209 22.7523 116.209 22.0154C116.209 21.351 116.81 21.0275 117.704 20.9489L121.368 20.678L121.366 20.9876Z" fill="#2A3362"/>
<path d="M133.934 15.1431L130.813 22.1634H130.638L127.477 15.1431H124.587L129.105 24.8388H132.306L136.803 15.1431H133.934Z" fill="#2A3362"/>
<path d="M145.356 21.6962C145.024 22.4919 144.076 22.9184 142.641 22.9184C140.682 22.9184 139.578 22.0267 139.404 20.7284H147.896C147.935 20.4585 147.953 20.1859 147.953 19.9126C147.935 16.4249 145.296 14.9484 142.473 14.9484C139.196 14.9484 136.734 16.9086 136.734 20.0692C136.734 23.0732 139.099 25.0317 142.647 25.0317C145.615 25.0317 147.591 23.7143 148 21.6964H145.356V21.6962ZM142.466 17.0633C144.173 17.0633 145.161 17.8185 145.318 18.8902H139.455C139.709 17.8634 140.695 17.0633 142.46 17.0633H142.466Z" fill="#2A3362"/>
<path d="M38.0021 14.4285C38.0021 13.5758 38.6032 13.2082 39.3793 13.2082C39.74 13.2115 40.0991 13.2636 40.4458 13.3629L40.8922 11.4227C40.2443 11.1934 39.5628 11.076 38.8761 11.0741C36.8977 11.0741 35.3087 12.1224 35.3087 14.2927V15.143H33V17.2674H35.3087V24.8386H38.0022V17.2656H41.0184V15.1428H38.0022V14.4282L38.0021 14.4285Z" fill="#2A3362"/>
<path d="M63.9771 12.4096H61.4859L61.3467 15.143H59.2404V17.2675H61.2966V22.0465C61.2966 23.6742 62.1271 25.0359 64.6182 25.0359C65.2642 25.0359 65.9079 24.9648 66.5383 24.8241V22.7826C66.1752 22.864 65.804 22.9097 65.432 22.9184C64.0948 22.9184 63.9789 22.1632 63.9789 21.5802V17.2621H66.6362V15.143H63.9771V12.4096Z" fill="#2A3362"/>
<path d="M72.3786 12.4096H69.8961L69.757 15.143H67.6454V17.2675H69.7016V22.0465C69.7016 23.6742 70.5321 25.0359 73.0233 25.0359C73.6677 25.0342 74.3102 24.9615 74.9383 24.8187V22.7826C74.5749 22.864 74.2049 22.9097 73.832 22.9184C72.4956 22.9184 72.3786 22.1632 72.3786 21.5802V17.2621H75.0445V15.143H72.3786V12.4096Z" fill="#2A3362"/>
<path d="M4.57764e-05 11.1035C4.57764e-05 9.59078 0.442449 8.29925 1.37063 7.37079L2.98508 8.98524C1.18804 10.7757 2.75786 16.3423 7.87404 21.464C12.9901 26.585 18.5601 28.1524 20.3561 26.3589L21.9705 27.9733C18.9417 31.0021 12.0422 28.853 6.26798 23.0769C2.26201 19.0693 4.57764e-05 14.5227 4.57764e-05 11.1037V11.1035Z" fill="#009A46"/>
<path d="M10.1815 29.3649C8.6686 29.3649 7.37707 28.9225 6.44707 27.9943L8.06152 26.3798C9.85506 28.1734 15.4216 26.6043 20.5428 21.4842C25.6638 16.3647 27.2304 10.7981 25.4367 9.00459L27.0511 7.39014C30.0816 10.419 27.9306 17.3176 22.1538 23.0927C18.147 27.1045 13.6004 29.3649 10.1813 29.3649H10.1815Z" fill="#FF5805"/>
<path d="M22.6886 20.782C21.7083 17.96 19.707 14.9446 17.0506 12.29C11.2754 6.51302 4.37676 4.3627 1.34794 7.39349C1.13359 7.60965 1.31926 8.1444 1.76502 8.58904C2.21064 9.0348 2.74469 9.21892 2.95987 9.00458C4.75523 7.2109 10.3218 8.78002 15.441 13.901C17.8628 16.3227 19.6682 19.0271 20.5376 21.5295C21.3003 23.7242 21.2254 25.4935 20.3376 26.3814C20.1215 26.5958 20.309 27.1323 20.753 27.5761C21.197 28.0202 21.7326 28.2069 21.9496 27.9907C23.5011 26.4392 23.7642 23.8755 22.6886 20.7819V20.782Z" fill="#F5AFCB"/>
<path d="M27.0479 7.39356C25.4933 5.83871 22.9326 5.5754 19.8357 6.65174C17.0155 7.63057 13.9983 9.6344 11.3437 12.2884C5.56839 18.0636 3.41849 24.9621 6.44718 27.9927C6.66334 28.2071 7.19809 28.0223 7.64287 27.578C8.08849 27.1342 8.27429 26.5978 8.05827 26.3816C6.25969 24.588 7.83371 19.0213 12.9549 13.8994C15.3767 11.4776 18.0808 9.67302 20.5834 8.80276C22.7779 8.04262 24.5472 8.11495 25.4369 9.00297C25.6513 9.21732 26.1877 9.0325 26.6319 8.58687C27.0759 8.14097 27.2625 7.60805 27.048 7.3937L27.0479 7.39356Z" fill="#FF9B00"/>
</svg>
