<svg width="148" height="36" viewBox="0 0 148 36" fill="none" xmlns="http://www.w3.org/2000/svg">
<rect width="148" height="36" fill="white"/>
<path fill-rule="evenodd" clip-rule="evenodd" d="M86.0347 18.4974C86.0347 12.3794 83.0713 7.55188 77.4074 7.55188C71.7195 7.55188 68.2781 12.3794 68.2781 18.4496C68.2781 25.6431 72.3409 29.2756 78.1721 29.2756C81.016 29.2756 83.1669 28.6304 84.792 27.7222V22.9425C83.1669 23.7551 81.3028 24.257 78.9369 24.257C76.6187 24.257 74.5634 23.4444 74.3005 20.6244H85.9869C85.9869 20.3137 86.0347 19.071 86.0347 18.4974ZM74.2289 16.227C74.2289 13.5265 75.8778 12.4033 77.3835 12.4033C78.8413 12.4033 80.3947 13.5265 80.3947 16.227H74.2289Z" fill="#635BFF"/>
<path fill-rule="evenodd" clip-rule="evenodd" d="M59.0533 7.55188C56.7112 7.55188 55.2056 8.65121 54.3692 9.41597L54.0585 7.93426H48.8008V35.7999L54.7754 34.5333L54.7993 27.77C55.6597 28.3914 56.9263 29.2756 59.0294 29.2756C63.3072 29.2756 67.2027 25.8343 67.2027 18.2584C67.1788 11.3278 63.2355 7.55188 59.0533 7.55188ZM57.6194 24.018C56.2093 24.018 55.3729 23.5161 54.7993 22.8947L54.7754 14.0284C55.3968 13.3353 56.2571 12.8574 57.6194 12.8574C59.7941 12.8574 61.2997 15.295 61.2997 18.4257C61.2997 21.6281 59.818 24.018 57.6194 24.018Z" fill="#635BFF"/>
<path fill-rule="evenodd" clip-rule="evenodd" d="M40.5797 6.14192L46.5782 4.8514V0L40.5797 1.26662V6.14192Z" fill="#635BFF"/>
<path d="M46.5782 7.95825H40.5797V28.8695H46.5782V7.95825Z" fill="#635BFF"/>
<path fill-rule="evenodd" clip-rule="evenodd" d="M34.151 9.7267L33.7686 7.95821H28.6066V28.8694H34.5812V14.6976C35.9912 12.8574 38.3811 13.192 39.1219 13.4549V7.95821C38.3572 7.67143 35.561 7.14566 34.151 9.7267Z" fill="#635BFF"/>
<path fill-rule="evenodd" clip-rule="evenodd" d="M22.2017 2.77222L16.3705 4.01494L16.3466 23.1577C16.3466 26.6946 18.9993 29.2996 22.5363 29.2996C24.496 29.2996 25.9299 28.9411 26.7186 28.5109V23.6595C25.9538 23.9702 22.1778 25.0695 22.1778 21.5326V13.0486H26.7186V7.9582H22.1778L22.2017 2.77222Z" fill="#635BFF"/>
<path fill-rule="evenodd" clip-rule="evenodd" d="M6.04633 14.0284C6.04633 13.0963 6.81108 12.7379 8.0777 12.7379C9.89399 12.7379 12.1883 13.2875 14.0045 14.2674V8.65121C12.021 7.86256 10.0613 7.55188 8.0777 7.55188C3.2263 7.55188 0 10.0851 0 14.3152C0 20.9112 9.08144 19.8596 9.08144 22.7036C9.08144 23.8029 8.1255 24.1614 6.78718 24.1614C4.80361 24.1614 2.27036 23.3488 0.262883 22.2495V27.9373C2.48545 28.8933 4.73191 29.2995 6.78718 29.2995C11.7581 29.2995 15.1756 26.838 15.1756 22.5602C15.1517 15.4384 6.04633 16.705 6.04633 14.0284Z" fill="#635BFF"/>
</svg>
