<svg width="148" height="36" viewBox="0 0 148 36" fill="none" xmlns="http://www.w3.org/2000/svg">
<g clip-path="url(#clip0_664_2)">
<rect width="148" height="36" fill="white"/>
<path d="M37 18V9.66667H10.3333C9.44928 9.66667 8.60143 9.31548 7.97631 8.69036C7.35119 8.06523 7 7.21739 7 6.33333C7 5.44928 7.35119 4.60143 7.97631 3.97631C8.60143 3.35119 9.44928 3 10.3333 3H33.6667V9.66667" stroke="#7A57D1" stroke-width="2.3" stroke-linecap="round" stroke-linejoin="round"/>
<path d="M7 6.33331V29.6666C7 30.5507 7.35119 31.3985 7.97631 32.0237C8.60143 32.6488 9.44928 33 10.3333 33H37V24.6666" stroke="#7A57D1" stroke-width="2.3" stroke-linecap="round" stroke-linejoin="round"/>
<path d="M32 18C31.116 18 30.2681 18.3512 29.643 18.9763C29.0179 19.6014 28.6667 20.4493 28.6667 21.3333C28.6667 22.2174 29.0179 23.0652 29.643 23.6904C30.2681 24.3155 31.116 24.6667 32 24.6667H38.6667V18H32Z" stroke="#7A57D1" stroke-width="2.3" stroke-linecap="round" stroke-linejoin="round"/>
<path d="M53.1064 27.616L47.5065 8.04492H52.0266L55.2661 21.6434H55.4286L59.0026 8.04492H62.8729L66.4373 21.6721H66.6093L69.8489 8.04492H74.369L68.769 27.616H64.7363L61.0094 14.8203H60.8565L57.1391 27.616H53.1064ZM79.116 27.8932C78.1795 27.8932 77.3449 27.7307 76.6123 27.4058C75.8797 27.0745 75.2999 26.5871 74.8731 25.9437C74.4526 25.2939 74.2424 24.4848 74.2424 23.5164C74.2424 22.701 74.3921 22.0161 74.6915 21.4618C74.9909 20.9076 75.3987 20.4616 75.9147 20.124C76.4307 19.7863 77.0168 19.5315 77.673 19.3595C78.3356 19.1875 79.03 19.0664 79.7563 18.9963C80.61 18.9071 81.298 18.8243 81.8204 18.7479C82.3428 18.665 82.7219 18.544 82.9576 18.3847C83.1933 18.2255 83.3112 17.9897 83.3112 17.6776V17.6202C83.3112 17.015 83.1201 16.5468 82.7378 16.2155C82.3619 15.8842 81.8268 15.7185 81.1324 15.7185C80.3997 15.7185 79.8168 15.881 79.3836 16.2059C78.9504 16.5245 78.6637 16.9258 78.5235 17.41L74.7584 17.1042C74.9495 16.2123 75.3254 15.4414 75.886 14.7916C76.4467 14.1354 77.1697 13.6321 78.0553 13.2817C78.9472 12.925 79.9793 12.7466 81.1515 12.7466C81.967 12.7466 82.7474 12.8421 83.4928 13.0333C84.2445 13.2244 84.9103 13.5206 85.49 13.922C86.0761 14.3233 86.538 14.8394 86.8757 15.4701C87.2133 16.0944 87.3821 16.843 87.3821 17.7158V27.616H83.5214V25.5806H83.4068C83.171 26.0393 82.8557 26.4438 82.4607 26.7942C82.0657 27.1382 81.5911 27.409 81.0368 27.6065C80.4826 27.7976 79.8423 27.8932 79.116 27.8932ZM80.2819 25.0836C80.8807 25.0836 81.4095 24.9658 81.8682 24.7301C82.3269 24.488 82.6869 24.1631 82.9481 23.7553C83.2093 23.3476 83.3399 22.8857 83.3399 22.3697V20.812C83.2125 20.8948 83.0373 20.9713 82.8143 21.0414C82.5977 21.1051 82.3524 21.1656 82.0784 21.2229C81.8045 21.2739 81.5306 21.3217 81.2566 21.3663C80.9827 21.4045 80.7342 21.4395 80.5112 21.4714C80.0334 21.5415 79.6161 21.653 79.2594 21.8059C78.9026 21.9588 78.6255 22.1658 78.428 22.427C78.2305 22.6818 78.1317 23.0004 78.1317 23.3826C78.1317 23.9369 78.3324 24.3605 78.7338 24.6536C79.1415 24.9403 79.6575 25.0836 80.2819 25.0836ZM94.6114 8.04492V27.616H90.5405V8.04492H94.6114ZM101.943 8.04492V27.616H97.8725V8.04492H101.943ZM111.894 27.9027C110.384 27.9027 109.084 27.5969 107.995 26.9853C106.912 26.3674 106.077 25.4945 105.491 24.3669C104.905 23.2329 104.612 21.8919 104.612 20.3438C104.612 18.8339 104.905 17.5087 105.491 16.3684C106.077 15.228 106.902 14.3393 107.966 13.7022C109.037 13.0651 110.292 12.7466 111.731 12.7466C112.7 12.7466 113.601 12.9027 114.436 13.2148C115.277 13.5206 116.009 13.9825 116.634 14.6005C117.264 15.2184 117.755 15.9957 118.105 16.9322C118.456 17.8623 118.631 18.9517 118.631 20.2004V21.3185H106.237V18.7956H114.799C114.799 18.2095 114.671 17.6903 114.417 17.238C114.162 16.7857 113.808 16.4321 113.356 16.1772C112.91 15.916 112.391 15.7854 111.798 15.7854C111.18 15.7854 110.632 15.9288 110.155 16.2155C109.683 16.4958 109.314 16.8749 109.046 17.3527C108.778 17.8241 108.642 18.3497 108.635 18.9294V21.328C108.635 22.0543 108.769 22.6818 109.037 23.2106C109.31 23.7394 109.696 24.1471 110.193 24.4338C110.69 24.7205 111.279 24.8638 111.961 24.8638C112.413 24.8638 112.827 24.8001 113.203 24.6727C113.579 24.5453 113.901 24.3542 114.168 24.0993C114.436 23.8445 114.64 23.5323 114.78 23.1628L118.545 23.4113C118.354 24.316 117.962 25.1059 117.37 25.7812C116.783 26.4502 116.025 26.9726 115.095 27.3485C114.171 27.718 113.104 27.9027 111.894 27.9027ZM129.095 12.9377V15.9957H120.255V12.9377H129.095ZM122.262 9.42101H126.333V23.1055C126.333 23.4814 126.391 23.7744 126.505 23.9847C126.62 24.1885 126.779 24.3319 126.983 24.4147C127.193 24.4975 127.435 24.5389 127.709 24.5389C127.9 24.5389 128.092 24.523 128.283 24.4911C128.474 24.4529 128.62 24.4243 128.722 24.4051L129.363 27.4345C129.159 27.4982 128.872 27.5714 128.503 27.6543C128.133 27.7434 127.684 27.7976 127.155 27.8167C126.174 27.8549 125.314 27.7243 124.575 27.4249C123.842 27.1255 123.272 26.6604 122.864 26.0297C122.457 25.399 122.256 24.6026 122.262 23.6406V9.42101Z" fill="#7A57D1"/>
</g>
<defs>
<clipPath id="clip0_664_2">
<rect width="148" height="36" fill="white"/>
</clipPath>
</defs>
</svg>
