<svg width="24" height="24" viewBox="0 0 24 24" fill="none" xmlns="http://www.w3.org/2000/svg">
<path d="M12.82 5.57998L12 6.40198L11.176 5.57798C10.1679 4.57003 8.8007 4.00382 7.37515 4.00391C5.94959 4.00401 4.58245 4.5704 3.5745 5.57848C2.56654 6.58657 2.00033 7.95378 2.00043 9.37934C2.00052 10.8049 2.56691 12.172 3.575 13.18L11.47 21.075C11.6106 21.2154 11.8012 21.2943 12 21.2943C12.1987 21.2943 12.3894 21.2154 12.53 21.075L20.432 13.178C21.4389 12.1698 22.0044 10.8031 22.0042 9.37828C22.004 7.95341 21.4382 6.58689 20.431 5.57898C19.9314 5.07903 19.3381 4.68242 18.6852 4.41182C18.0322 4.14123 17.3323 4.00195 16.6255 4.00195C15.9187 4.00195 15.2188 4.14123 14.5658 4.41182C13.9129 4.68242 13.3196 5.08003 12.82 5.57998ZM19.368 12.12L12 19.485L4.635 12.12C4.27203 11.7609 3.98362 11.3335 3.78633 10.8626C3.58905 10.3916 3.48679 9.88632 3.48544 9.37572C3.48408 8.86511 3.58365 8.35927 3.77842 7.88727C3.97319 7.41527 4.25933 6.98642 4.62038 6.62537C4.98144 6.26431 5.41029 5.97818 5.88229 5.7834C6.35428 5.58863 6.86012 5.48906 7.37073 5.49042C7.88133 5.49178 8.38664 5.59404 8.85759 5.79132C9.32855 5.9886 9.75587 6.27702 10.115 6.63998L11.473 7.99699C11.5437 8.06772 11.6277 8.12362 11.7203 8.16139C11.8129 8.19916 11.9121 8.21804 12.012 8.21692C12.112 8.2158 12.2107 8.19471 12.3024 8.15487C12.3941 8.11504 12.4769 8.05728 12.546 7.98499L13.88 6.63998C14.6153 5.95556 15.5874 5.583 16.5918 5.60067C17.5962 5.61834 18.5546 6.02487 19.2654 6.73474C19.9761 7.44461 20.3839 8.40249 20.4028 9.40686C20.4218 10.4112 20.0515 11.3838 19.368 12.12Z" fill="#536471"/>
</svg>
