<svg width="24" height="24" viewBox="0 0 24 24" fill="none" xmlns="http://www.w3.org/2000/svg">
<path d="M22 22L16.2857 16.2857M10.5714 19.1429C9.44581 19.1429 8.33122 18.9212 7.29128 18.4904C6.25135 18.0596 5.30644 17.4283 4.51051 16.6323C3.71458 15.8364 3.08322 14.8915 2.65246 13.8516C2.22171 12.8116 2 11.697 2 10.5714C2 9.44581 2.22171 8.33122 2.65246 7.29128C3.08322 6.25135 3.71458 5.30644 4.51051 4.51051C5.30644 3.71458 6.25135 3.08322 7.29128 2.65246C8.33122 2.22171 9.44581 2 10.5714 2C12.8447 2 15.0249 2.90306 16.6323 4.51051C18.2398 6.11797 19.1429 8.29814 19.1429 10.5714C19.1429 12.8447 18.2398 15.0249 16.6323 16.6323C15.0249 18.2398 12.8447 19.1429 10.5714 19.1429Z" stroke="#536471" stroke-width="1.6"/>
</svg>
